<svg xmlns="http://www.w3.org/2000/svg" width="200" height="200" viewBox="0 0 200 200"><rect width="100%" height="100%" fill="#008000"/><path fill="#FFFFFF" d="M86.645 125.65h13.6q3.75 0 6.31-.9 2.54-.9 4.07-2.4 1.52-1.5 2.2-3.5.67-2 .67-4.25 0-2.35-.75-4.23-.75-1.87-2.35-3.2-1.59-1.32-4.12-2.02t-6.07-.7h-13.56zm11.45-51.4h-11.45v20.9h10.7q6.9 0 10.43-2.5t3.53-7.95q0-5.65-3.21-8.05-3.2-2.4-10-2.4m-24.9-10.4h24.9q7.11 0 12.15 1.35 5.06 1.35 8.28 3.85t4.72 6.05 1.5 8q0 2.55-.75 4.87-.75 2.33-2.32 4.35-1.58 2.03-4 3.68-2.43 1.65-5.78 2.8 14.91 3.35 14.91 16.1 0 4.6-1.75 8.5t-5.1 6.72q-3.36 2.83-8.25 4.43-4.9 1.6-11.21 1.6h-27.3z"/></svg>