<svg xmlns="http://www.w3.org/2000/svg" width="200" height="200" viewBox="0 0 200 200"><rect width="100%" height="100%" fill="#800080"/><path fill="#FFFFFF" d="M107.95 99.9h24v29.25q-5.5 4.05-11.72 5.93-6.23 1.87-13.33 1.87-8.85 0-16.03-2.75-7.17-2.75-12.25-7.65-5.07-4.9-7.82-11.7T68.05 100q0-8.15 2.65-14.95t7.52-11.7q4.88-4.9 11.83-7.6t15.6-2.7q4.4 0 8.22.7 3.83.7 7.11 1.92 3.27 1.23 5.97 2.98t4.95 3.85l-3.85 6.1q-.9 1.45-2.35 1.77-1.45.33-3.15-.72l-3.3-1.9q-1.65-.95-3.67-1.65-2.03-.7-4.56-1.15-2.52-.45-5.82-.45-5.35 0-9.68 1.8-4.32 1.8-7.37 5.15t-4.7 8.05T81.8 100q0 6.2 1.77 11.07 1.78 4.88 5 8.26 3.23 3.37 7.78 5.14 4.55 1.78 10.15 1.78 4 0 7.15-.85t6.15-2.3V110h-9.1q-1.3 0-2.03-.73-.72-.72-.72-1.77z"/></svg>