<svg xmlns="http://www.w3.org/2000/svg" width="200" height="200" viewBox="0 0 200 200"><rect width="100%" height="100%" fill="#0000FF"/><path fill="#FFFFFF" d="M123.305 119.1q1.1 0 1.95.85l5.3 5.75q-4.4 5.45-10.83 8.35-6.42 2.9-15.42 2.9-8.06 0-14.48-2.75-6.43-2.75-10.98-7.65t-6.97-11.7q-2.43-6.8-2.43-14.85 0-8.15 2.6-14.93 2.6-6.77 7.33-11.67 4.72-4.9 11.27-7.63 6.55-2.72 14.51-2.72 7.9 0 14.02 2.6 6.13 2.6 10.42 6.8l-4.5 6.25q-.4.6-1.02 1.05-.63.45-1.73.45-.75 0-1.54-.43-.8-.42-1.75-1.05-.96-.62-2.21-1.37t-2.9-1.38q-1.64-.62-3.82-1.05-2.18-.42-5.03-.42-4.85 0-8.87 1.72-4.03 1.73-6.93 5-2.9 3.28-4.5 8-1.6 4.73-1.6 10.78 0 6.1 1.73 10.85 1.72 4.75 4.67 8t6.95 4.97q4.01 1.73 8.61 1.73 2.75 0 4.97-.3t4.1-.95q1.87-.65 3.55-1.68 1.67-1.02 3.32-2.52.5-.45 1.06-.73.54-.27 1.15-.27"/></svg>